<svg width="45" height="40" viewBox="0 0 45 40" fill="none" xmlns="http://www.w3.org/2000/svg">
<path d="M31.3404 0V6.96628H13.0772V0H12.0078V21.4419H13.0865V14.4756H31.3498V21.4419H32.4285V0H31.3404ZM31.3404 8.04306V10.1872H13.0772V8.04306H31.3404ZM13.0772 13.3989V11.2547H31.3404V13.3989H13.0772Z" fill="#002E66"/>
<path d="M5.60936 30.75V34.6077H1.16315V30.75H0V40.0009H1.16315V35.7313H5.60936V40.0009H6.77251V30.75H5.60936Z" fill="#002E66"/>
<path d="M12.0078 30.75V40.0009H18.2081V38.9241H13.1803V35.7313H17.589V34.6358H13.1803V31.8174H18.2081V30.75H12.0078Z" fill="#002E66"/>
<path d="M22.6875 30.75V40.0009H28.3063V38.9148H23.8506V30.75H22.6875Z" fill="#002E66"/>
<path d="M33.6054 30.75H32.4141V40.0009H33.6054V30.75Z" fill="#002E66"/>
<path d="M43.6689 30.75L41.3802 34.4953L39.0539 30.75H37.7594L40.6298 35.3286L37.7031 40.0009H38.9788L41.3051 36.1994L43.6502 40.0009H44.9447L42.018 35.3286L44.9071 30.75H43.6689Z" fill="#002E66"/>
</svg>
